<?xml version="1.0" encoding="UTF-8" standalone="no"?>
<svg
   xmlns:dc="http://purl.org/dc/elements/1.1/"
   xmlns:cc="http://creativecommons.org/ns#"
   xmlns:rdf="http://www.w3.org/1999/02/22-rdf-syntax-ns#"
   xmlns:svg="http://www.w3.org/2000/svg"
   xmlns="http://www.w3.org/2000/svg"
   viewBox="0 0 377.95334 377.95334"
   height="377.95334"
   width="377.95334"
   xml:space="preserve"
   id="svg2"
   version="1.1"><metadata
     id="metadata8"><rdf:RDF><cc:Work
         rdf:about=""><dc:format>image/svg+xml</dc:format><dc:type
           rdf:resource="http://purl.org/dc/dcmitype/StillImage" /></cc:Work></rdf:RDF></metadata><defs
     id="defs6"><clipPath
       id="clipPath22"
       clipPathUnits="userSpaceOnUse"><path
         id="path20"
         d="M 0,283.465 H 283.465 V 0 H 0 Z" /></clipPath><linearGradient
       id="linearGradient44"
       spreadMethod="pad"
       gradientTransform="matrix(151.89342,-28.429249,-28.429249,-151.89342,87.603188,56.099239)"
       gradientUnits="userSpaceOnUse"
       y2="0"
       x2="1"
       y1="0"
       x1="0"><stop
         id="stop40"
         offset="0"
         style="stop-opacity:1;stop-color:#fdc400" /><stop
         id="stop42"
         offset="1"
         style="stop-opacity:1;stop-color:#d78816" /></linearGradient><linearGradient
       id="linearGradient64"
       spreadMethod="pad"
       gradientTransform="matrix(151.89342,-28.429249,-28.429249,-151.89342,87.875626,57.554806)"
       gradientUnits="userSpaceOnUse"
       y2="0"
       x2="1"
       y1="0"
       x1="0"><stop
         id="stop60"
         offset="0"
         style="stop-opacity:1;stop-color:#fdc400" /><stop
         id="stop62"
         offset="1"
         style="stop-opacity:1;stop-color:#d78816" /></linearGradient><linearGradient
       id="linearGradient84"
       spreadMethod="pad"
       gradientTransform="matrix(151.89342,-28.429249,-28.429249,-151.89342,88.665436,61.774654)"
       gradientUnits="userSpaceOnUse"
       y2="0"
       x2="1"
       y1="0"
       x1="0"><stop
         id="stop80"
         offset="0"
         style="stop-opacity:1;stop-color:#fdc400" /><stop
         id="stop82"
         offset="1"
         style="stop-opacity:1;stop-color:#d78816" /></linearGradient><linearGradient
       id="linearGradient104"
       spreadMethod="pad"
       gradientTransform="matrix(151.89342,-28.429249,-28.429249,-151.89342,90.027115,69.049912)"
       gradientUnits="userSpaceOnUse"
       y2="0"
       x2="1"
       y1="0"
       x1="0"><stop
         id="stop100"
         offset="0"
         style="stop-opacity:1;stop-color:#fdc400" /><stop
         id="stop102"
         offset="1"
         style="stop-opacity:1;stop-color:#d78816" /></linearGradient><linearGradient
       id="linearGradient124"
       spreadMethod="pad"
       gradientTransform="matrix(151.89342,-28.429249,-28.429249,-151.89342,90.469986,71.416138)"
       gradientUnits="userSpaceOnUse"
       y2="0"
       x2="1"
       y1="0"
       x1="0"><stop
         id="stop120"
         offset="0"
         style="stop-opacity:1;stop-color:#fdc400" /><stop
         id="stop122"
         offset="1"
         style="stop-opacity:1;stop-color:#d78816" /></linearGradient><linearGradient
       id="linearGradient144"
       spreadMethod="pad"
       gradientTransform="matrix(151.89342,-28.429249,-28.429249,-151.89342,90.490509,71.525772)"
       gradientUnits="userSpaceOnUse"
       y2="0"
       x2="1"
       y1="0"
       x1="0"><stop
         id="stop140"
         offset="0"
         style="stop-opacity:1;stop-color:#fdc400" /><stop
         id="stop142"
         offset="1"
         style="stop-opacity:1;stop-color:#d78816" /></linearGradient><linearGradient
       id="linearGradient164"
       spreadMethod="pad"
       gradientTransform="matrix(151.89342,-28.429249,-28.429249,-151.89342,90.953369,73.998756)"
       gradientUnits="userSpaceOnUse"
       y2="0"
       x2="1"
       y1="0"
       x1="0"><stop
         id="stop160"
         offset="0"
         style="stop-opacity:1;stop-color:#fdc400" /><stop
         id="stop162"
         offset="1"
         style="stop-opacity:1;stop-color:#d78816" /></linearGradient><linearGradient
       id="linearGradient184"
       spreadMethod="pad"
       gradientTransform="matrix(151.89342,-28.429249,-28.429249,-151.89342,91.620277,77.561951)"
       gradientUnits="userSpaceOnUse"
       y2="0"
       x2="1"
       y1="0"
       x1="0"><stop
         id="stop180"
         offset="0"
         style="stop-opacity:1;stop-color:#fdc400" /><stop
         id="stop182"
         offset="1"
         style="stop-opacity:1;stop-color:#d78816" /></linearGradient><linearGradient
       id="linearGradient206"
       spreadMethod="pad"
       gradientTransform="matrix(0,-146.61142,-146.61142,0,141.73064,236.48528)"
       gradientUnits="userSpaceOnUse"
       y2="0"
       x2="1"
       y1="0"
       x1="0"><stop
         id="stop200"
         offset="0"
         style="stop-opacity:1;stop-color:#fdc400" /><stop
         id="stop202"
         offset="0.4242583"
         style="stop-opacity:1;stop-color:#fdc400" /><stop
         id="stop204"
         offset="1"
         style="stop-opacity:1;stop-color:#d78816" /></linearGradient><linearGradient
       id="linearGradient228"
       spreadMethod="pad"
       gradientTransform="matrix(0,-146.61142,-146.61142,0,141.74648,236.48528)"
       gradientUnits="userSpaceOnUse"
       y2="0"
       x2="1"
       y1="0"
       x1="0"><stop
         id="stop222"
         offset="0"
         style="stop-opacity:1;stop-color:#fdc400" /><stop
         id="stop224"
         offset="0.4242583"
         style="stop-opacity:1;stop-color:#fdc400" /><stop
         id="stop226"
         offset="1"
         style="stop-opacity:1;stop-color:#d78816" /></linearGradient><linearGradient
       id="linearGradient250"
       spreadMethod="pad"
       gradientTransform="matrix(0,-146.61142,-146.61142,0,162.20691,236.48528)"
       gradientUnits="userSpaceOnUse"
       y2="0"
       x2="1"
       y1="0"
       x1="0"><stop
         id="stop244"
         offset="0"
         style="stop-opacity:1;stop-color:#fdc400" /><stop
         id="stop246"
         offset="0.4242583"
         style="stop-opacity:1;stop-color:#fdc400" /><stop
         id="stop248"
         offset="1"
         style="stop-opacity:1;stop-color:#d78816" /></linearGradient><linearGradient
       id="linearGradient272"
       spreadMethod="pad"
       gradientTransform="matrix(0,-146.61142,-146.61142,0,121.83193,236.48528)"
       gradientUnits="userSpaceOnUse"
       y2="0"
       x2="1"
       y1="0"
       x1="0"><stop
         id="stop266"
         offset="0"
         style="stop-opacity:1;stop-color:#fdc400" /><stop
         id="stop268"
         offset="0.4242583"
         style="stop-opacity:1;stop-color:#fdc400" /><stop
         id="stop270"
         offset="1"
         style="stop-opacity:1;stop-color:#d78816" /></linearGradient><linearGradient
       id="linearGradient294"
       spreadMethod="pad"
       gradientTransform="matrix(0,-146.61142,-146.61142,0,161.68384,236.48528)"
       gradientUnits="userSpaceOnUse"
       y2="0"
       x2="1"
       y1="0"
       x1="0"><stop
         id="stop288"
         offset="0"
         style="stop-opacity:1;stop-color:#fdc400" /><stop
         id="stop290"
         offset="0.4242583"
         style="stop-opacity:1;stop-color:#fdc400" /><stop
         id="stop292"
         offset="1"
         style="stop-opacity:1;stop-color:#d78816" /></linearGradient><linearGradient
       id="linearGradient316"
       spreadMethod="pad"
       gradientTransform="matrix(0,-146.61142,-146.61142,0,122.29234,236.48528)"
       gradientUnits="userSpaceOnUse"
       y2="0"
       x2="1"
       y1="0"
       x1="0"><stop
         id="stop310"
         offset="0"
         style="stop-opacity:1;stop-color:#fdc400" /><stop
         id="stop312"
         offset="0.4242583"
         style="stop-opacity:1;stop-color:#fdc400" /><stop
         id="stop314"
         offset="1"
         style="stop-opacity:1;stop-color:#d78816" /></linearGradient><linearGradient
       id="linearGradient338"
       spreadMethod="pad"
       gradientTransform="matrix(0,-146.61142,-146.61142,0,161.03867,236.48528)"
       gradientUnits="userSpaceOnUse"
       y2="0"
       x2="1"
       y1="0"
       x1="0"><stop
         id="stop332"
         offset="0"
         style="stop-opacity:1;stop-color:#fdc400" /><stop
         id="stop334"
         offset="0.4242583"
         style="stop-opacity:1;stop-color:#fdc400" /><stop
         id="stop336"
         offset="1"
         style="stop-opacity:1;stop-color:#d78816" /></linearGradient><linearGradient
       id="linearGradient360"
       spreadMethod="pad"
       gradientTransform="matrix(0,-146.61142,-146.61142,0,122.75629,236.48528)"
       gradientUnits="userSpaceOnUse"
       y2="0"
       x2="1"
       y1="0"
       x1="0"><stop
         id="stop354"
         offset="0"
         style="stop-opacity:1;stop-color:#fdc400" /><stop
         id="stop356"
         offset="0.4242583"
         style="stop-opacity:1;stop-color:#fdc400" /><stop
         id="stop358"
         offset="1"
         style="stop-opacity:1;stop-color:#d78816" /></linearGradient><linearGradient
       id="linearGradient382"
       spreadMethod="pad"
       gradientTransform="matrix(0,-146.61142,-146.61142,0,159.36963,236.48528)"
       gradientUnits="userSpaceOnUse"
       y2="0"
       x2="1"
       y1="0"
       x1="0"><stop
         id="stop376"
         offset="0"
         style="stop-opacity:1;stop-color:#fdc400" /><stop
         id="stop378"
         offset="0.4242583"
         style="stop-opacity:1;stop-color:#fdc400" /><stop
         id="stop380"
         offset="1"
         style="stop-opacity:1;stop-color:#d78816" /></linearGradient><linearGradient
       id="linearGradient404"
       spreadMethod="pad"
       gradientTransform="matrix(0,-146.61142,-146.61142,0,124.21884,236.48528)"
       gradientUnits="userSpaceOnUse"
       y2="0"
       x2="1"
       y1="0"
       x1="0"><stop
         id="stop398"
         offset="0"
         style="stop-opacity:1;stop-color:#fdc400" /><stop
         id="stop400"
         offset="0.4242583"
         style="stop-opacity:1;stop-color:#fdc400" /><stop
         id="stop402"
         offset="1"
         style="stop-opacity:1;stop-color:#d78816" /></linearGradient><linearGradient
       id="linearGradient426"
       spreadMethod="pad"
       gradientTransform="matrix(0,-146.61142,-146.61142,0,157.03893,236.48528)"
       gradientUnits="userSpaceOnUse"
       y2="0"
       x2="1"
       y1="0"
       x1="0"><stop
         id="stop420"
         offset="0"
         style="stop-opacity:1;stop-color:#fdc400" /><stop
         id="stop422"
         offset="0.4242583"
         style="stop-opacity:1;stop-color:#fdc400" /><stop
         id="stop424"
         offset="1"
         style="stop-opacity:1;stop-color:#d78816" /></linearGradient><linearGradient
       id="linearGradient448"
       spreadMethod="pad"
       gradientTransform="matrix(0,-146.61142,-146.61142,0,126.40956,236.48528)"
       gradientUnits="userSpaceOnUse"
       y2="0"
       x2="1"
       y1="0"
       x1="0"><stop
         id="stop442"
         offset="0"
         style="stop-opacity:1;stop-color:#fdc400" /><stop
         id="stop444"
         offset="0.4242583"
         style="stop-opacity:1;stop-color:#fdc400" /><stop
         id="stop446"
         offset="1"
         style="stop-opacity:1;stop-color:#d78816" /></linearGradient><clipPath
       id="clipPath458"
       clipPathUnits="userSpaceOnUse"><path
         id="path456"
         d="M 0,283.465 H 283.465 V 0 H 0 Z" /></clipPath><linearGradient
       id="linearGradient510"
       spreadMethod="pad"
       gradientTransform="matrix(0,-146.61142,-146.61142,0,163.23767,236.48528)"
       gradientUnits="userSpaceOnUse"
       y2="0"
       x2="1"
       y1="0"
       x1="0"><stop
         id="stop504"
         offset="0"
         style="stop-opacity:1;stop-color:#fdc400" /><stop
         id="stop506"
         offset="0.4242583"
         style="stop-opacity:1;stop-color:#fdc400" /><stop
         id="stop508"
         offset="1"
         style="stop-opacity:1;stop-color:#d78816" /></linearGradient><linearGradient
       id="linearGradient532"
       spreadMethod="pad"
       gradientTransform="matrix(0,-146.61142,-146.61142,0,120.44651,236.48528)"
       gradientUnits="userSpaceOnUse"
       y2="0"
       x2="1"
       y1="0"
       x1="0"><stop
         id="stop526"
         offset="0"
         style="stop-opacity:1;stop-color:#fdc400" /><stop
         id="stop528"
         offset="0.4242583"
         style="stop-opacity:1;stop-color:#fdc400" /><stop
         id="stop530"
         offset="1"
         style="stop-opacity:1;stop-color:#d78816" /></linearGradient><linearGradient
       id="linearGradient554"
       spreadMethod="pad"
       gradientTransform="matrix(0,-148.48891,-148.48891,0,163.60088,236.57376)"
       gradientUnits="userSpaceOnUse"
       y2="0"
       x2="1"
       y1="0"
       x1="0"><stop
         id="stop548"
         offset="0"
         style="stop-opacity:1;stop-color:#fdc400" /><stop
         id="stop550"
         offset="0.4242583"
         style="stop-opacity:1;stop-color:#fdc400" /><stop
         id="stop552"
         offset="1"
         style="stop-opacity:1;stop-color:#d78816" /></linearGradient><linearGradient
       id="linearGradient576"
       spreadMethod="pad"
       gradientTransform="matrix(0,-148.72688,-148.72688,0,120.17066,236.58499)"
       gradientUnits="userSpaceOnUse"
       y2="0"
       x2="1"
       y1="0"
       x1="0"><stop
         id="stop570"
         offset="0"
         style="stop-opacity:1;stop-color:#fdc400" /><stop
         id="stop572"
         offset="0.4242583"
         style="stop-opacity:1;stop-color:#fdc400" /><stop
         id="stop574"
         offset="1"
         style="stop-opacity:1;stop-color:#d78816" /></linearGradient><clipPath
       id="clipPath586"
       clipPathUnits="userSpaceOnUse"><path
         id="path584"
         d="M 0,283.465 H 283.465 V 0 H 0 Z" /></clipPath><linearGradient
       id="linearGradient610"
       spreadMethod="pad"
       gradientTransform="matrix(-1.3481814,3.027679,-2.8969026,-1.8440884,161.44995,136.64267)"
       gradientUnits="userSpaceOnUse"
       y2="0"
       x2="1"
       y1="0"
       x1="0"><stop
         id="stop604"
         offset="0"
         style="stop-opacity:1;stop-color:#e59b1e" /><stop
         id="stop606"
         offset="0.81128"
         style="stop-opacity:1;stop-color:#ffffff" /><stop
         id="stop608"
         offset="1"
         style="stop-opacity:1;stop-color:#e59b1e" /></linearGradient><linearGradient
       id="linearGradient630"
       spreadMethod="pad"
       gradientTransform="matrix(-14.152655,66.645134,-62.028561,-23.261438,187.28648,148.9198)"
       gradientUnits="userSpaceOnUse"
       y2="0"
       x2="1"
       y1="0"
       x1="0"><stop
         id="stop626"
         offset="0"
         style="stop-opacity:1;stop-color:#2b2b2a" /><stop
         id="stop628"
         offset="1"
         style="stop-opacity:1;stop-color:#ffffff" /></linearGradient><clipPath
       id="clipPath640"
       clipPathUnits="userSpaceOnUse"><path
         id="path638"
         d="M 0,283.465 H 283.465 V 0 H 0 Z" /></clipPath><linearGradient
       id="linearGradient672"
       spreadMethod="pad"
       gradientTransform="matrix(1.3481814,3.027679,2.8969026,-1.8440884,122.01461,136.64267)"
       gradientUnits="userSpaceOnUse"
       y2="0"
       x2="1"
       y1="0"
       x1="0"><stop
         id="stop666"
         offset="0"
         style="stop-opacity:1;stop-color:#e59b1e" /><stop
         id="stop668"
         offset="0.81128"
         style="stop-opacity:1;stop-color:#ffffff" /><stop
         id="stop670"
         offset="1"
         style="stop-opacity:1;stop-color:#e59b1e" /></linearGradient><linearGradient
       id="linearGradient692"
       spreadMethod="pad"
       gradientTransform="matrix(14.152655,66.645134,62.028561,-23.261438,96.178078,148.9198)"
       gradientUnits="userSpaceOnUse"
       y2="0"
       x2="1"
       y1="0"
       x1="0"><stop
         id="stop688"
         offset="0"
         style="stop-opacity:1;stop-color:#2b2b2a" /><stop
         id="stop690"
         offset="1"
         style="stop-opacity:1;stop-color:#ffffff" /></linearGradient><clipPath
       id="clipPath702"
       clipPathUnits="userSpaceOnUse"><path
         id="path700"
         d="M 0,283.465 H 283.465 V 0 H 0 Z" /></clipPath></defs><g
     transform="matrix(1.3333333,0,0,-1.3333333,0,377.95333)"
     id="g10"><g
       transform="translate(38.5645,67.5486)"
       id="g12"><path
         id="path14"
         style="fill:#1c1b18;fill-opacity:1;fill-rule:nonzero;stroke:none"
         d="M 0,0 H 5.491 V -11.006 L 15.812,0 h 7.212 L 12.062,-10.985 23.586,-26.711 H 16.41 L 8.179,-15.05 5.491,-17.777 v -8.934 H 0 Z" /></g><g
       id="g16"><g
         clip-path="url(#clipPath22)"
         id="g18"><g
           transform="translate(75.8413,50.4416)"
           id="g24"><path
             id="path26"
             style="fill:#1c1b18;fill-opacity:1;fill-rule:nonzero;stroke:none"
             d="M 0,0 C -0.331,-0.206 -0.665,-0.372 -1.001,-0.499 -1.338,-0.625 -1.8,-0.743 -2.389,-0.852 l -1.175,-0.217 c -1.103,-0.194 -1.894,-0.429 -2.374,-0.707 -0.814,-0.471 -1.22,-1.202 -1.22,-2.193 0,-0.882 0.247,-1.519 0.746,-1.912 0.495,-0.392 1.099,-0.589 1.812,-0.589 1.128,0 2.167,0.326 3.119,0.979 0.951,0.652 1.443,1.843 1.481,3.57 z m -3.158,2.41 c 0.961,0.121 1.648,0.272 2.063,0.453 0.741,0.314 1.113,0.804 1.113,1.468 0,0.81 -0.286,1.368 -0.854,1.676 -0.57,0.308 -1.405,0.462 -2.508,0.462 -1.237,0 -2.112,-0.302 -2.626,-0.906 C -6.338,5.116 -6.583,4.512 -6.705,3.751 h -4.983 c 0.108,1.728 0.594,3.147 1.455,4.259 1.371,1.74 3.726,2.609 7.062,2.609 C -1,10.619 0.93,10.19 2.617,9.333 4.304,8.475 5.146,6.856 5.146,4.476 v -9.061 c 0,-0.628 0.013,-1.389 0.037,-2.283 0.036,-0.677 0.139,-1.136 0.308,-1.378 0.169,-0.241 0.423,-0.441 0.761,-0.598 v -0.76 H 0.634 c -0.157,0.398 -0.265,0.772 -0.326,1.123 -0.06,0.35 -0.109,0.749 -0.145,1.196 -0.717,-0.773 -1.543,-1.432 -2.479,-1.975 -1.118,-0.641 -2.382,-0.961 -3.791,-0.961 -1.799,0 -3.285,0.511 -4.456,1.532 -1.174,1.021 -1.76,2.467 -1.76,4.34 0,2.428 0.944,4.186 2.83,5.273 1.035,0.592 2.556,1.015 4.564,1.269 z" /></g></g></g><g
       id="g28"><g
         id="g30"><g
           id="g36"><g
             id="g38"><path
               id="path46"
               style="fill:url(#linearGradient44);stroke:none"
               d="M 96.229,67.458 V 40.837 h 16.961 v 3.171 H 99.834 v 23.45 z" /></g></g></g></g><g
       id="g48"><g
         id="g50"><g
           id="g56"><g
             id="g58"><path
               id="path66"
               style="fill:url(#linearGradient64);stroke:none"
               d="m 128.485,60.245 v -9.532 c 0,-1.896 -0.217,-3.388 -0.652,-4.476 v 0 c -0.801,-2.029 -2.307,-3.044 -4.519,-3.044 v 0 c -1.541,0 -2.593,0.579 -3.159,1.739 v 0 c -0.307,0.629 -0.459,1.439 -0.459,2.429 v 0 12.884 h -3.334 V 47.053 c 0,-1.655 0.267,-2.978 0.8,-3.969 v 0 c 0.983,-1.849 2.833,-2.773 5.549,-2.773 v 0 c 1.741,0 3.223,0.508 4.444,1.523 v 0 c 0.616,0.507 1.133,1.129 1.548,1.866 v 0 l -0.036,-2.863 h 3.08 v 19.408 z" /></g></g></g></g><g
       id="g68"><g
         id="g70"><g
           id="g76"><g
             id="g78"><path
               id="path86"
               style="fill:url(#linearGradient84);stroke:none"
               d="m 153.801,59.928 c -0.978,-0.501 -1.83,-1.271 -2.555,-2.31 v 0 c -0.435,0.846 -0.918,1.486 -1.45,1.921 v 0 c -0.942,0.761 -2.186,1.142 -3.732,1.142 v 0 c -1.366,0 -2.586,-0.369 -3.662,-1.106 v 0 c -0.628,-0.435 -1.328,-1.13 -2.101,-2.084 v 0 2.754 h -3.226 V 40.837 h 3.262 V 51.13 c 0,2.501 0.504,4.229 1.513,5.183 v 0 c 1.009,0.954 2.129,1.432 3.362,1.432 v 0 c 1.353,0 2.276,-0.454 2.772,-1.359 v 0 c 0.314,-0.605 0.472,-1.565 0.472,-2.882 v 0 -12.667 h 3.316 v 11.29 c 0,2.005 0.462,3.437 1.386,4.295 v 0 c 0.925,0.858 2.026,1.286 3.307,1.286 v 0 c 0.931,0 1.719,-0.241 2.365,-0.724 v 0 c 0.646,-0.484 0.969,-1.372 0.969,-2.664 v 0 -13.483 h 3.39 v 12.921 c 0,1.715 -0.254,3.081 -0.762,4.095 v 0 c -0.942,1.885 -2.718,2.828 -5.327,2.828 v 0 c -1.221,0 -2.32,-0.251 -3.299,-0.753" /></g></g></g></g><g
       id="g88"><g
         id="g90"><g
           id="g96"><g
             id="g98"><path
               id="path106"
               style="fill:url(#linearGradient104);stroke:none"
               d="m 167.99,63.761 h 3.316 v 3.696 h -3.316 z m 0,-22.924 h 3.316 v 19.318 h -3.316 z" /></g></g></g></g><g
       id="g108"><g
         id="g110"><g
           id="g116"><g
             id="g118"><path
               id="path126"
               style="fill:url(#linearGradient124);stroke:none"
               d="m 179.027,68.056 4.856,-5.238 h 2.484 l -3.299,5.238 z m -1.374,-10.293 c -1.682,-1.945 -2.522,-4.476 -2.522,-7.593 v 0 c 0,-3.166 0.833,-5.627 2.504,-7.385 v 0 c 1.667,-1.758 3.702,-2.637 6.104,-2.637 v 0 c 0.984,0 1.863,0.096 2.642,0.29 v 0 c 1.454,0.338 2.67,0.991 3.652,1.957 v 0 c 0.589,0.557 1.121,1.272 1.598,2.148 v 0 c 0.477,0.876 0.758,1.67 0.843,2.383 v 0 h -3.208 c -0.235,-0.86 -0.634,-1.622 -1.199,-2.274 v 0 c -1.006,-1.13 -2.353,-1.695 -4.045,-1.695 v 0 c -1.809,0 -3.146,0.598 -4.01,1.791 v 0 c -0.861,1.193 -1.323,2.776 -1.384,4.751 v 0 h 14.117 c 0,1.958 -0.096,3.383 -0.286,4.277 v 0 c -0.218,1.305 -0.65,2.446 -1.299,3.425 v 0 c -0.67,1.027 -1.65,1.863 -2.937,2.509 v 0 c -1.282,0.647 -2.609,0.971 -3.98,0.971 v 0 c -2.712,0 -4.911,-0.973 -6.59,-2.918 m 2.648,-1.55 c 1.006,1.082 2.25,1.622 3.736,1.622 v 0 c 2.073,0 3.553,-0.785 4.44,-2.355 v 0 c 0.478,-0.846 0.783,-1.976 0.915,-3.39 v 0 H 178.7 c 0.062,1.668 0.593,3.042 1.601,4.123" /></g></g></g></g><g
       id="g128"><g
         id="g130"><g
           id="g136"><g
             id="g138"><path
               id="path146"
               style="fill:url(#linearGradient144);stroke:none"
               d="m 201.933,59.276 c -0.991,-0.936 -1.613,-1.731 -1.867,-2.383 v 0 3.352 h -3.098 V 40.837 h 3.261 V 52 c 0,1.377 0.441,2.595 1.323,3.652 v 0 c 0.882,1.057 2.145,1.585 3.787,1.585 v 0 c 0.194,0 0.372,-0.006 0.535,-0.018 v 0 c 0.164,-0.012 0.342,-0.037 0.536,-0.073 v 0 3.444 c -0.351,0.036 -0.599,0.06 -0.744,0.073 v 0 c -0.145,0.011 -0.247,0.018 -0.309,0.018 v 0 c -1.292,0 -2.433,-0.469 -3.424,-1.405" /></g></g></g></g><g
       id="g148"><g
         id="g150"><g
           id="g156"><g
             id="g158"><path
               id="path166"
               style="fill:url(#linearGradient164);stroke:none"
               d="m 210.653,57.763 c -1.683,-1.945 -2.522,-4.476 -2.522,-7.593 v 0 c 0,-3.166 0.834,-5.627 2.504,-7.385 v 0 c 1.667,-1.758 3.703,-2.637 6.104,-2.637 v 0 c 0.984,0 1.863,0.096 2.642,0.29 v 0 c 1.453,0.338 2.671,0.991 3.652,1.957 v 0 c 0.589,0.557 1.12,1.272 1.598,2.148 v 0 c 0.477,0.876 0.758,1.67 0.842,2.383 v 0 h -3.207 c -0.236,-0.86 -0.635,-1.622 -1.199,-2.274 v 0 c -1.006,-1.13 -2.353,-1.695 -4.045,-1.695 v 0 c -1.809,0 -3.147,0.598 -4.01,1.791 v 0 c -0.861,1.193 -1.324,2.776 -1.383,4.751 v 0 h 14.116 c 0,1.958 -0.097,3.383 -0.287,4.277 v 0 c -0.218,1.305 -0.649,2.446 -1.299,3.425 v 0 c -0.67,1.027 -1.648,1.863 -2.935,2.509 v 0 c -1.284,0.647 -2.609,0.971 -3.981,0.971 v 0 c -2.712,0 -4.911,-0.973 -6.59,-2.918 m 2.648,-1.55 c 1.006,1.082 2.251,1.622 3.737,1.622 v 0 c 2.071,0 3.551,-0.785 4.439,-2.355 v 0 c 0.477,-0.846 0.782,-1.976 0.916,-3.39 v 0 h -10.692 c 0.06,1.668 0.592,3.042 1.6,4.123" /></g></g></g></g><g
       id="g168"><g
         id="g170"><g
           id="g176"><g
             id="g178"><path
               id="path186"
               style="fill:url(#linearGradient184);stroke:none"
               d="m 231.236,59.05 c -1.341,-1.136 -2.011,-2.622 -2.011,-4.459 v 0 c 0,-1.558 0.712,-2.778 2.135,-3.66 v 0 c 0.8,-0.508 2.039,-0.967 3.721,-1.378 v 0 l 2.634,-0.651 c 1.41,-0.351 2.355,-0.659 2.836,-0.925 v 0 c 0.749,-0.435 1.123,-1.069 1.123,-1.903 v 0 c 0,-1.099 -0.468,-1.912 -1.404,-2.437 v 0 c -0.939,-0.526 -2.024,-0.789 -3.256,-0.789 v 0 c -2.072,0 -3.528,0.526 -4.365,1.577 v 0 c -0.459,0.58 -0.733,1.414 -0.833,2.501 v 0 h -3.135 c 0.085,-1.933 0.737,-3.555 1.954,-4.865 v 0 c 1.217,-1.312 3.286,-1.967 6.21,-1.967 v 0 c 2.715,0 4.736,0.628 6.065,1.885 v 0 c 1.326,1.256 1.99,2.748 1.99,4.475 v 0 c 0,1.789 -0.635,3.099 -1.903,3.933 v 0 c -0.812,0.531 -2.413,1.081 -4.799,1.649 v 0 l -2.199,0.526 c -0.96,0.229 -1.685,0.495 -2.178,0.795 v 0 c -0.854,0.506 -1.28,1.179 -1.28,2.023 v 0 c 0,0.77 0.323,1.389 0.972,1.86 v 0 c 0.65,0.468 1.607,0.704 2.867,0.704 v 0 c 1.893,0 3.222,-0.426 3.989,-1.281 v 0 c 0.468,-0.601 0.735,-1.265 0.798,-1.999 v 0 h 3.08 c 0.025,1.256 -0.374,2.428 -1.192,3.516 v 0 c -1.311,1.715 -3.446,2.573 -6.41,2.573 v 0 c -2.264,0 -4.068,-0.568 -5.409,-1.703" /></g></g></g></g><g
       id="g188"><g
         id="g190"><g
           id="g196"><g
             id="g198"><path
               id="path208"
               style="fill:url(#linearGradient206);stroke:none"
               d="m 141.215,207.553 c -4.762,-0.093 -9.48,-1.957 -13.042,-5.063 v 0 c -3.558,-3.118 -6.115,-7.267 -7.293,-11.79 v 0 c -1.176,-4.558 -0.791,-9.383 0.891,-13.66 v 0 c 0.864,-2.131 2.053,-4.109 3.497,-5.848 v 0 c 1.396,-1.791 3.189,-3.174 4.849,-4.651 v 0 c -1.458,1.689 -3.051,3.248 -4.23,5.11 v 0 c -1.218,1.823 -2.203,3.785 -2.83,5.849 v 0 c -0.654,2.052 -0.969,4.195 -0.976,6.337 v 0 c -0.013,2.139 0.256,4.258 0.89,6.268 v 0 c 0.631,1.998 1.597,3.948 2.72,5.706 v 0 c 1.164,1.752 2.583,3.332 4.188,4.665 v 0 c 3.21,2.67 7.248,4.243 11.401,4.284 v 0 c 4.168,0.158 8.321,-1.123 11.675,-3.59 v 0 c 3.377,-2.416 6.039,-5.993 7.389,-9.926 v 0 c 0.647,-1.998 0.985,-4.135 1.075,-6.28 v 0 c 0.104,-2.15 -0.058,-4.322 -0.513,-6.431 v 0 c -0.434,-2.117 -1.226,-4.136 -2.441,-5.955 v 0 c -1.204,-1.825 -2.715,-3.475 -4.215,-5.121 v 0 c 1.704,1.432 3.407,2.894 4.84,4.663 v 0 c 1.456,1.749 2.49,3.879 3.147,6.071 v 0 c 1.261,4.413 1.392,9.139 0.197,13.68 v 0 c -0.624,2.296 -1.695,4.414 -3.039,6.335 v 0 c -1.332,1.933 -2.982,3.651 -4.862,5.09 v 0 c -3.606,2.762 -8.179,4.266 -12.716,4.266 v 0 c -0.2,0 -0.401,-0.003 -0.602,-0.009" /></g></g></g></g><g
       id="g210"><g
         id="g212"><g
           id="g218"><g
             id="g220"><path
               id="path230"
               style="fill:url(#linearGradient228);stroke:none"
               d="m 170.751,225.767 c 4.197,-3.871 7.682,-8.492 10.236,-13.559 v 0 c 1.277,-2.539 2.305,-5.168 3.039,-7.899 v 0 c 0.751,-2.726 1.172,-5.541 1.434,-8.359 v 0 c 0.517,-5.641 0.147,-11.367 -1.019,-16.881 v 0 c -1.209,-5.517 -3.347,-10.756 -6.797,-15.175 v 0 c -1.688,-2.234 -3.602,-4.315 -5.612,-6.326 v 0 c -2.023,-1.998 -4.091,-4.006 -6.206,-5.892 v 0 c -4.262,-3.787 -8.809,-7.534 -12.426,-12.298 v 0 c -1.8,-2.374 -3.344,-5.004 -4.391,-7.858 v 0 c -0.903,-2.412 -1.389,-4.976 -1.523,-7.543 v 0 l -11.112,-0.002 c -0.112,2.554 -0.556,5.115 -1.418,7.546 v 0 c -1.014,2.877 -2.58,5.529 -4.444,7.869 v 0 c -3.733,4.721 -8.54,8.167 -12.715,11.936 v 0 c -2.116,1.936 -4.214,3.865 -6.141,5.917 v 0 c -1.913,2.067 -3.715,4.245 -5.315,6.556 v 0 c -3.216,4.609 -5.679,9.743 -7.063,15.2 v 0 c -1.379,5.447 -1.822,11.182 -1.227,16.79 v 0 c 0.551,5.628 2.377,11.066 4.906,16.162 v 0 c 5.02,10.166 13.789,18.619 24.549,22.779 v 0 c -5.464,-1.813 -10.555,-4.785 -14.9,-8.618 v 0 c -4.356,-3.822 -8.031,-8.435 -10.794,-13.572 v 0 c -2.764,-5.1 -4.729,-10.729 -5.441,-16.554 v 0 c -0.736,-5.817 -0.405,-11.745 0.916,-17.474 v 0 c 1.335,-5.726 3.782,-11.201 7.087,-16.061 v 0 c 1.649,-2.436 3.497,-4.72 5.467,-6.895 v 0 c 1.988,-2.163 4.11,-4.152 6.215,-6.12 v 0 c 4.305,-3.97 8.912,-7.366 12.334,-11.725 v 0 c 1.708,-2.161 3.091,-4.539 3.983,-7.097 v 0 c 0.895,-2.557 1.274,-5.276 1.26,-8.012 v 0 l -0.006,-1.396 h 1.392 l 13.815,-0.002 h 1.385 l 0.001,1.392 c 0.003,2.722 0.419,5.434 1.364,7.985 v 0 c 0.927,2.555 2.311,4.95 3.977,7.164 v 0 c 3.354,4.44 7.722,8.123 11.994,12.018 v 0 c 2.157,1.969 4.197,3.993 6.245,6.059 v 0 c 2.033,2.079 4.004,4.263 5.761,6.642 v 0 c 1.756,2.37 3.283,4.964 4.386,7.722 v 0 c 1.129,2.744 1.934,5.589 2.512,8.466 v 0 c 1.092,5.763 1.343,11.661 0.691,17.466 v 0 c -0.612,5.787 -2.161,11.582 -5.015,16.693 v 0 c -2.804,5.116 -6.522,9.701 -10.917,13.482 v 0 c -4.379,3.809 -9.546,6.652 -15.013,8.437 v 0 c 5.377,-2.049 10.35,-5.086 14.546,-8.963" /></g></g></g></g><g
       id="g232"><g
         id="g234"><g
           id="g240"><g
             id="g242"><path
               id="path252"
               style="fill:url(#linearGradient250);stroke:none"
               d="m 169.325,205.647 c 3.979,-6.608 4.955,-14.534 4.316,-22.186 v 0 c -0.376,-3.819 -1.197,-7.618 -2.741,-11.079 v 0 c -1.544,-3.458 -3.999,-6.501 -6.643,-9.41 v 0 c -5.325,-5.836 -11.415,-11.066 -16.45,-17.237 v 0 c 1.321,1.484 2.812,2.8 4.269,4.147 v 0 c 1.461,1.343 2.94,2.668 4.425,3.986 v 0 l 8.914,7.953 c 2.95,2.698 5.745,5.783 7.653,9.515 v 0 c 1.842,3.738 2.879,7.78 3.292,11.854 v 0 c 0.445,4.076 0.289,8.206 -0.476,12.249 v 0 c -0.71,4.054 -2.359,7.995 -4.565,11.429 v 0 c -4.454,6.851 -11.34,12.228 -19.15,14.077 v 0 c 7.358,-3.104 13.308,-8.641 17.156,-15.298" /></g></g></g></g><g
       id="g254"><g
         id="g256"><g
           id="g262"><g
             id="g264"><path
               id="path274"
               style="fill:url(#linearGradient272);stroke:none"
               d="m 120.57,215.547 c -3.251,-2.521 -6.04,-5.65 -8.251,-9.164 v 0 c -1.092,-1.781 -2.015,-3.622 -2.825,-5.535 v 0 c -0.812,-1.914 -1.454,-3.918 -1.874,-5.97 v 0 c -0.43,-2.049 -0.675,-4.137 -0.738,-6.225 v 0 c -0.048,-2.09 0.096,-4.169 0.391,-6.234 v 0 c 0.569,-4.135 1.959,-8.157 3.96,-11.793 v 0 c 2.031,-3.629 4.655,-6.862 7.631,-9.663 v 0 c 1.469,-1.418 3.079,-2.653 4.575,-3.987 v 0 l 4.494,-4.021 4.474,-4.043 c 1.481,-1.36 2.991,-2.69 4.384,-4.139 v 0 c -2.654,3.028 -5.538,5.842 -8.375,8.692 v 0 l -4.298,4.237 c -1.444,1.406 -2.807,2.881 -4.145,4.343 v 0 c -2.613,2.971 -4.926,6.189 -6.632,9.687 v 0 c -1.753,3.475 -2.844,7.228 -3.367,11.061 v 0 c -0.489,3.844 -0.429,7.76 0.308,11.539 v 0 c 0.764,3.755 2.17,7.464 4.061,10.858 v 0 c 3.772,6.809 9.716,12.508 17.112,15.755 v 0 c -3.908,-1.003 -7.644,-2.87 -10.885,-5.398" /></g></g></g></g><g
       id="g276"><g
         id="g278"><g
           id="g284"><g
             id="g286"><path
               id="path296"
               style="fill:url(#linearGradient294);stroke:none"
               d="m 166.254,203.89 c 0.862,-1.43 1.642,-2.906 2.266,-4.441 v 0 c 0.603,-1.523 1.053,-3.112 1.425,-4.725 v 0 c 0.687,-3.249 0.884,-6.611 0.741,-9.948 v 0 c -0.097,-1.666 -0.258,-3.333 -0.578,-4.967 v 0 c -0.293,-1.636 -0.67,-3.264 -1.238,-4.813 v 0 c -0.566,-1.549 -1.222,-3.051 -2.096,-4.466 v 0 c -0.855,-1.423 -1.88,-2.759 -2.952,-4.078 v 0 c -2.17,-2.609 -4.62,-5.106 -7.002,-7.617 v 0 c -2.363,-2.534 -4.748,-5.052 -6.958,-7.723 v 0 c 1.203,1.244 2.482,2.412 3.743,3.597 v 0 l 3.798,3.538 c 1.281,1.165 2.512,2.375 3.836,3.493 v 0 c 1.328,1.119 2.619,2.296 3.871,3.541 v 0 c 2.483,2.476 4.734,5.443 6.047,8.847 v 0 c 1.361,3.362 2.046,6.924 2.268,10.494 v 0 c 0.114,1.786 0.109,3.581 -0.024,5.368 v 0 c -0.161,1.786 -0.417,3.566 -0.815,5.324 v 0 c -0.411,1.757 -0.98,3.485 -1.729,5.151 v 0 c -0.757,1.638 -1.643,3.209 -2.663,4.682 v 0 c -4.032,5.899 -10.155,10.425 -16.965,11.988 v 0 c 6.372,-2.791 11.581,-7.513 15.025,-13.245" /></g></g></g></g><g
       id="g298"><g
         id="g300"><g
           id="g306"><g
             id="g308"><path
               id="path318"
               style="fill:url(#linearGradient316);stroke:none"
               d="m 115.461,204.79 c -1.007,-1.503 -1.864,-3.11 -2.617,-4.735 v 0 c -0.764,-1.634 -1.399,-3.35 -1.859,-5.116 v 0 c -0.925,-3.532 -1.211,-7.23 -0.862,-10.836 v 0 c 0.299,-3.615 1.234,-7.195 2.756,-10.488 v 0 c 1.524,-3.293 3.625,-6.274 6.063,-8.869 v 0 c 2.399,-2.67 5.315,-4.672 7.858,-7.047 v 0 c 2.601,-2.328 5.252,-4.6 7.806,-6.981 v 0 c -2.385,2.554 -4.871,5.009 -7.348,7.47 v 0 c -2.508,2.43 -4.934,4.97 -7.032,7.653 v 0 c -2.083,2.716 -3.863,5.625 -5.118,8.743 v 0 c -1.262,3.111 -1.988,6.405 -2.253,9.744 v 0 c -0.238,3.345 -0.041,6.706 0.754,9.942 v 0 c 0.816,3.209 2.114,6.4 3.815,9.288 v 0 c 3.4,5.82 8.568,10.684 14.956,13.577 v 0 c -6.849,-1.667 -12.932,-6.352 -16.919,-12.345" /></g></g></g></g><g
       id="g320"><g
         id="g322"><g
           id="g328"><g
             id="g330"><path
               id="path340"
               style="fill:url(#linearGradient338);stroke:none"
               d="m 163.829,201.736 c 1.475,-2.424 2.585,-4.991 3.208,-7.703 v 0 c 0.686,-2.711 0.871,-5.551 0.894,-8.367 v 0 c -0.15,-5.627 -1.218,-11.344 -4.585,-15.937 v 0 c -1.631,-2.332 -3.606,-4.498 -5.58,-6.681 v 0 l -6.025,-6.428 6.514,5.922 c 2.228,1.901 4.55,3.765 6.524,6.073 v 0 c 1.984,2.278 3.566,5.066 4.44,7.999 v 0 c 0.962,2.917 1.367,5.964 1.462,9.003 v 0 c 0.07,3.043 -0.238,6.102 -1.026,9.076 v 0 c -0.355,1.493 -0.933,2.954 -1.592,4.346 v 0 c -0.676,1.377 -1.421,2.717 -2.315,3.953 v 0 c -3.483,4.979 -8.624,8.842 -14.362,10.332 v 0 c 5.26,-2.679 9.526,-6.749 12.443,-11.588" /></g></g></g></g><g
       id="g342"><g
         id="g344"><g
           id="g350"><g
             id="g352"><path
               id="path362"
               style="fill:url(#linearGradient360);stroke:none"
               d="m 117.905,202.647 c -0.89,-1.262 -1.636,-2.648 -2.297,-4.021 v 0 c -0.657,-1.391 -1.267,-2.832 -1.694,-4.335 v 0 c -0.86,-3.001 -1.266,-6.155 -1.085,-9.258 v 0 c 0.207,-6.215 2.615,-12.362 6.526,-17.068 v 0 c 0.976,-1.182 2.019,-2.291 3.122,-3.337 v 0 c 1.113,-1.033 2.278,-1.984 3.446,-2.913 v 0 l 3.412,-2.887 c 1.138,-0.96 2.287,-1.908 3.391,-2.907 v 0 c -2.015,2.198 -4.161,4.272 -6.246,6.395 v 0 c -2.041,2.18 -3.994,4.363 -5.584,6.794 v 0 c -3.289,4.779 -5.134,10.336 -5.305,16.038 v 0 c -0.083,2.841 0.149,5.68 0.912,8.41 v 0 c 0.733,2.72 1.877,5.416 3.31,7.876 v 0 c 2.912,4.935 7.179,9.152 12.503,11.89 v 0 c -5.799,-1.587 -10.95,-5.583 -14.411,-10.677" /></g></g></g></g><g
       id="g364"><g
         id="g366"><g
           id="g372"><g
             id="g374"><path
               id="path384"
               style="fill:url(#linearGradient382);stroke:none"
               d="m 161.221,200.349 c 1.304,-2 2.334,-4.18 3,-6.404 v 0 c 0.702,-2.242 0.982,-4.63 1.133,-7.009 v 0 c 0.063,-1.192 0.051,-2.39 -0.026,-3.584 v 0 c -0.066,-1.193 -0.173,-2.388 -0.377,-3.564 v 0 c -0.201,-1.178 -0.463,-2.342 -0.803,-3.48 v 0 c -0.164,-0.572 -0.362,-1.13 -0.583,-1.678 v 0 c -0.203,-0.565 -0.476,-1.026 -0.769,-1.552 v 0 c -1.212,-2.048 -2.803,-3.98 -4.374,-5.892 v 0 c -1.601,-1.899 -3.244,-3.781 -4.889,-5.67 v 0 c 1.954,1.566 3.875,3.177 5.696,4.909 v 0 c 1.836,1.724 3.59,3.525 5.14,5.637 v 0 c 0.377,0.524 0.746,1.138 1.03,1.723 v 0 c 0.304,0.584 0.58,1.179 0.818,1.788 v 0 c 0.269,0.601 0.45,1.226 0.672,1.842 v 0 c 0.164,0.629 0.361,1.255 0.489,1.891 v 0 c 0.578,2.537 0.83,5.141 0.725,7.739 v 0 c -0.072,2.599 -0.484,5.199 -1.306,7.711 v 0 c -0.38,1.267 -0.964,2.484 -1.58,3.626 v 0 c -0.627,1.148 -1.315,2.26 -2.119,3.285 v 0 c -3.135,4.133 -7.582,7.308 -12.485,8.519 v 0 c 4.422,-2.396 8.029,-5.801 10.608,-9.837" /></g></g></g></g><g
       id="g386"><g
         id="g388"><g
           id="g394"><g
             id="g396"><path
               id="path406"
               style="fill:url(#linearGradient404);stroke:none"
               d="m 120.393,201.184 c -0.8,-1.073 -1.482,-2.248 -2.101,-3.433 v 0 c -0.606,-1.178 -1.172,-2.409 -1.599,-3.693 v 0 c -0.864,-2.563 -1.355,-5.283 -1.336,-7.986 v 0 c -0.075,-5.384 1.613,-10.826 4.735,-15.134 v 0 c 1.53,-2.165 3.438,-4.039 5.356,-5.758 v 0 c 1.927,-1.716 3.886,-3.386 5.879,-5.019 v 0 c -3.434,3.819 -7.397,7.28 -9.694,11.752 v 0 c -1.238,2.168 -2.104,4.492 -2.723,6.855 v 0 c -0.295,1.188 -0.487,2.398 -0.619,3.613 v 0 c -0.147,1.213 -0.208,2.443 -0.18,3.662 v 0 c 0.071,2.436 0.394,4.852 1.144,7.172 v 0 c 0.744,2.318 1.749,4.614 3.035,6.697 v 0 c 2.587,4.197 6.237,7.808 10.792,10.274 v 0 c -5.045,-1.296 -9.549,-4.685 -12.689,-9.002" /></g></g></g></g><g
       id="g408"><g
         id="g410"><g
           id="g416"><g
             id="g418"><path
               id="path428"
               style="fill:url(#linearGradient426);stroke:none"
               d="m 158.063,200.094 c 1.226,-1.647 2.344,-3.378 3.12,-5.252 v 0 c 0.822,-1.824 1.32,-3.792 1.588,-5.817 v 0 c 0.318,-2.015 0.382,-4.083 0.258,-6.132 v 0 c -0.099,-2.053 -0.431,-4.095 -0.98,-6.06 v 0 c -0.57,-1.956 -1.421,-3.81 -2.618,-5.544 v 0 c -1.151,-1.759 -2.569,-3.387 -3.906,-5.099 v 0 c 1.762,1.268 3.449,2.636 4.976,4.249 v 0 c 0.755,0.812 1.447,1.699 2.068,2.648 v 0 c 0.623,0.951 1.109,1.99 1.535,3.038 v 0 c 1.644,4.23 2.03,8.821 1.434,13.295 v 0 c -0.342,2.228 -0.93,4.472 -1.955,6.541 v 0 c -1.023,2.034 -2.308,3.921 -3.862,5.552 v 0 c -3.061,3.289 -7.148,5.621 -11.444,6.32 v 0 c 3.94,-1.823 7.267,-4.481 9.786,-7.739" /></g></g></g></g><g
       id="g430"><g
         id="g432"><g
           id="g438"><g
             id="g440"><path
               id="path450"
               style="fill:url(#linearGradient448);stroke:none"
               d="m 123.552,200.933 c -3.04,-3.519 -5.087,-7.909 -5.71,-12.615 v 0 c -0.537,-4.671 0.228,-9.486 2.396,-13.629 v 0 c 1.05,-2.075 2.451,-3.936 4.02,-5.579 v 0 c 1.561,-1.672 3.389,-3.012 5.189,-4.316 v 0 c -1.453,1.714 -3.031,3.271 -4.213,5.112 v 0 c -1.237,1.798 -2.274,3.696 -3.062,5.669 v 0 c -1.551,3.934 -2.089,8.253 -1.56,12.396 v 0 c 0.244,2.072 0.793,4.091 1.617,6.039 v 0 c 0.774,2.001 1.817,3.805 3.039,5.559 v 0 c 2.488,3.453 5.83,6.328 9.874,8.264 v 0 c -4.428,-0.809 -8.565,-3.394 -11.59,-6.9" /></g></g></g></g><g
       id="g452"><g
         clip-path="url(#clipPath458)"
         id="g454"><g
           transform="translate(146.4722,121.174)"
           id="g460"><path
             id="path462"
             style="fill:#1c1b18;fill-opacity:1;fill-rule:nonzero;stroke:none"
             d="m 0,0 c 0.003,-0.031 0.02,-0.137 0.026,-0.188 6.94,-0.709 12.836,-1.038 20.181,-1.848 V 8.499 L -4.297,5.241 -28.801,8.825 V -2.198 c 7.082,0.754 11.692,1.135 20.137,2.001 0.002,0.017 0.01,0.065 0.011,0.078 z" /></g><g
           transform="translate(146.5391,120.6921)"
           id="g464"><path
             id="path466"
             style="fill:#2b2b2a;fill-opacity:1;fill-rule:nonzero;stroke:none"
             d="M 0,0 C -0.019,0.127 -0.03,0.213 -0.041,0.294 -0.081,0.298 -0.118,0.301 -0.157,0.305 -0.147,0.203 -0.055,0.102 0,0" /></g><g
           transform="translate(132.5894,89.7497)"
           id="g468"><path
             id="path470"
             style="fill:#1c1b18;fill-opacity:1;fill-rule:nonzero;stroke:none"
             d="m 0,0 c 0,0 0,-0.002 0,-0.002 h 19.141 c 0,0 0,0.002 0,0.002 z" /></g><g
           transform="translate(137.8081,120.9773)"
           id="g472"><path
             id="path474"
             style="fill:#2b2b2a;fill-opacity:1;fill-rule:nonzero;stroke:none"
             d="m 0,0 c -0.012,-0.104 -0.032,-0.256 -0.068,-0.492 0.134,0.17 0.245,0.34 0.262,0.512 C 0.126,0.013 0.068,0.007 0,0" /></g><g
           transform="translate(150.4771,97.386)"
           id="g476"><path
             id="path478"
             style="fill:#1c1b18;fill-opacity:1;fill-rule:nonzero;stroke:none"
             d="m 0,0 h -16.636 c -0.69,-4.067 -1.204,-7.157 -1.252,-7.636 H 1.253 C 1.205,-7.154 0.69,-4.067 0,0" /></g><g
           transform="translate(146.5391,120.6921)"
           id="g480"><path
             id="path482"
             style="fill:#1c1b18;fill-opacity:1;fill-rule:nonzero;stroke:none"
             d="M 0,0 C -0.055,0.102 -0.147,0.203 -0.157,0.305 -0.118,0.301 -0.081,0.298 -0.041,0.294 -0.047,0.345 -0.063,0.451 -0.067,0.482 L -8.72,0.363 C -8.721,0.35 -8.729,0.302 -8.731,0.285 c 0.068,0.007 0.126,0.013 0.194,0.02 -0.017,-0.172 -0.128,-0.342 -0.262,-0.512 -0.118,-0.781 -0.362,-2.269 -0.677,-4.149 H 0.711 C 0.368,-2.313 0.112,-0.759 0,0" /></g><g
           transform="translate(149.1904,104.9284)"
           id="g484"><path
             id="path486"
             style="fill:#1c1b18;fill-opacity:1;fill-rule:nonzero;stroke:none"
             d="m 0,0 h -14.064 c -0.213,-1.244 -0.423,-2.473 -0.628,-3.678 H 0.628 C 0.423,-2.473 0.213,-1.245 0,0" /></g><g
           transform="translate(147.9033,112.4748)"
           id="g488"><path
             id="path490"
             style="fill:#1c1b18;fill-opacity:1;fill-rule:nonzero;stroke:none"
             d="m 0,0 h -11.492 c -0.199,-1.172 -0.408,-2.399 -0.625,-3.67 H 0.625 C 0.408,-2.4 0.2,-1.174 0,0" /></g></g></g><g
       id="g492"><g
         id="g494"><g
           id="g500"><g
             id="g502"><path
               id="path512"
               style="fill:url(#linearGradient510);stroke:none"
               d="m 172.809,207.524 c 1.039,-1.908 1.909,-3.901 2.583,-5.929 v 0 c 0.685,-2.038 1.104,-4.173 1.409,-6.313 v 0 c 0.308,-2.144 0.462,-4.316 0.46,-6.486 v 0 c 0.019,-2.171 -0.136,-4.344 -0.438,-6.487 v 0 c -0.268,-2.15 -0.696,-4.278 -1.324,-6.334 v 0 c -0.621,-2.057 -1.404,-4.052 -2.441,-5.907 v 0 c -2.038,-3.759 -5.042,-6.979 -8.132,-10.158 v 0 l -1.172,-1.191 c -0.408,-0.419 -0.735,-0.72 -1.166,-1.098 v 0 l -2.532,-2.176 c -1.693,-1.471 -3.375,-2.967 -4.998,-4.527 v 0 c -3.205,-3.144 -6.317,-6.482 -8.58,-10.367 v 0 c 2.77,3.522 6.073,6.516 9.495,9.343 v 0 c 1.708,1.418 3.459,2.785 5.238,4.127 v 0 c 0.89,0.671 1.775,1.346 2.669,2.051 v 0 c 0.43,0.334 0.943,0.769 1.331,1.135 v 0 l 1.237,1.139 c 3.304,3.03 6.529,6.37 8.913,10.415 v 0 c 1.199,2.018 2.054,4.213 2.752,6.418 v 0 c 0.696,2.212 1.179,4.476 1.48,6.758 v 0 c 0.299,2.282 0.439,4.582 0.398,6.878 v 0 c -0.031,2.296 -0.182,4.595 -0.58,6.865 v 0 c -0.39,2.268 -0.905,4.524 -1.706,6.705 v 0 c -0.784,2.195 -1.814,4.268 -3.013,6.226 v 0 c -4.73,7.844 -12.335,13.998 -21.013,16.368 v 0 c 8.267,-3.477 14.969,-9.828 19.13,-17.455" /></g></g></g></g><g
       id="g514"><g
         id="g516"><g
           id="g522"><g
             id="g524"><path
               id="path534"
               style="fill:url(#linearGradient532);stroke:none"
               d="m 118.083,218.717 c -3.523,-2.875 -6.568,-6.367 -8.918,-10.312 v 0 c -2.346,-3.928 -4.095,-8.24 -5.003,-12.794 v 0 c -0.88,-4.554 -0.854,-9.229 -0.166,-13.789 v 0 c 0.742,-4.561 2.299,-9.004 4.581,-13.013 v 0 c 2.304,-3.997 5.215,-7.596 8.54,-10.702 v 0 c 0.823,-0.78 1.661,-1.534 2.499,-2.278 v 0 c 0.826,-0.745 1.717,-1.503 2.576,-2.191 v 0 l 5.163,-4.255 c 3.428,-2.85 6.843,-5.712 10.048,-8.832 v 0 c -2.75,3.543 -5.948,6.709 -9.131,9.853 v 0 c -1.609,1.556 -3.242,3.088 -4.874,4.615 v 0 c -1.636,1.504 -3.206,3.05 -4.745,4.637 v 0 c -6.1,6.264 -10.631,14.047 -11.898,22.608 v 0 c -0.694,4.255 -0.726,8.636 0.005,12.87 v 0 c 0.693,4.242 2.286,8.344 4.296,12.199 v 0 c 4.113,7.645 10.716,14.079 18.94,17.646 v 0 c -4.307,-1.232 -8.365,-3.419 -11.913,-6.262" /></g></g></g></g><g
       id="g536"><g
         id="g538"><g
           id="g544"><g
             id="g546"><path
               id="path556"
               style="fill:url(#linearGradient554);stroke:none"
               d="m 176.379,209.872 c 2.323,-4.329 3.702,-9.014 4.263,-13.892 v 0 c 0.596,-4.852 0.508,-9.805 -0.26,-14.629 v 0 c -0.781,-4.813 -2.199,-9.539 -4.767,-13.612 v 0 c -2.517,-4.14 -6.044,-7.654 -9.564,-11.218 v 0 c -7.362,-6.481 -16.781,-14.103 -22.606,-22.347 v 0 c 3.327,3.777 8.355,8.232 12.232,11.398 v 0 c 1.941,1.582 3.908,3.13 5.9,4.652 v 0 l 2.986,2.293 c 0.98,0.77 2.028,1.515 3.002,2.432 v 0 c 3.704,3.388 7.422,6.984 10.288,11.374 v 0 c 2.88,4.418 4.424,9.52 5.289,14.59 v 0 c 0.757,5.109 0.838,10.303 0.118,15.416 v 0 c -0.727,5.079 -2.307,10.191 -4.983,14.602 v 0 c -5.163,8.89 -13.63,15.897 -23.363,18.644 v 0 c 9.32,-3.853 16.872,-11.05 21.465,-19.703" /></g></g></g></g><g
       id="g558"><g
         id="g560"><g
           id="g566"><g
             id="g568"><path
               id="path578"
               style="fill:url(#linearGradient576);stroke:none"
               d="m 115.469,222.407 c -3.934,-3.26 -7.285,-7.244 -9.854,-11.71 v 0 c -2.544,-4.445 -4.451,-9.333 -5.314,-14.463 v 0 c -0.863,-5.128 -0.722,-10.363 0.198,-15.461 v 0 c 0.979,-5.094 2.903,-10.012 5.61,-14.415 v 0 c 2.723,-4.389 6.139,-8.323 9.926,-11.707 v 0 l 1.409,-1.269 c 0.484,-0.421 0.898,-0.829 1.487,-1.278 v 0 l 3.043,-2.244 c 2.023,-1.478 4.023,-2.982 5.992,-4.526 v 0 c 3.937,-3.086 9.23,-7.623 12.65,-11.314 v 0 c -2.949,4.098 -8.052,8.966 -11.768,12.366 v 0 c -1.881,1.683 -3.807,3.313 -5.748,4.92 v 0 l -2.909,2.375 c -0.401,0.325 -0.87,0.813 -1.315,1.237 v 0 l -1.335,1.313 c -3.523,3.493 -6.71,7.258 -9.163,11.492 v 0 c -2.486,4.195 -4.256,8.788 -5.133,13.571 v 0 c -0.916,4.772 -1.058,9.728 -0.337,14.524 v 0 c 0.66,4.818 2.397,9.45 4.614,13.835 v 0 c 4.539,8.674 11.987,15.965 21.259,19.922 v 0 c -4.833,-1.421 -9.367,-3.931 -13.312,-7.168" /></g></g></g></g><g
       id="g580"><g
         clip-path="url(#clipPath586)"
         id="g582"><g
           transform="translate(155.6597,134.7136)"
           id="g588"><path
             id="path590"
             style="fill:#2b2b2a;fill-opacity:1;fill-rule:nonzero;stroke:none"
             d="m 0,0 c 0,0 -0.185,-0.143 -0.266,-0.325 0.009,0.117 0.095,0.282 0.225,0.413 -0.848,-0.271 -0.967,-1.589 -0.276,-1.887 -0.103,0.006 -0.221,0.064 -0.352,0.254 0.066,-0.543 0.423,-0.991 0.925,-1.088 0.65,-0.127 1.209,0.455 1.29,0.637 -0.009,-0.117 -0.072,-0.203 -0.155,-0.32 0.735,0.554 0.177,1.537 0.314,1.288 C 1.646,-0.479 0.948,0.266 0.958,0.979 0.767,0.539 0.308,0.322 0,0" /></g></g></g><g
       id="g592"><g
         id="g594"><g
           id="g600"><g
             id="g602"><path
               id="path612"
               style="fill:url(#linearGradient610);stroke:none"
               d="m 164.947,142.663 c -0.22,-0.22 -0.404,-0.439 -0.405,-0.437 v 0 c -0.001,0.001 -2.482,-1.954 -5.38,-4.06 v 0 c -2.461,-1.787 -3.108,-4.062 -3.246,-4.697 v 0 c 0.172,0.338 1.075,1.237 5.506,3.27 v 0 c 0.183,0.084 0.383,0.174 0.6,0.268 v 0 c -0.599,0.306 -1.062,0.87 0.111,1.89 v 0 c 2.011,1.768 2.89,1.975 2.894,1.97 v 0 c -0.006,0.001 -0.219,0.162 0.661,2.014 v 0 c -0.002,0.008 -0.01,0.016 -0.008,0.025 v 0 c 0.001,0.138 -0.044,0.193 -0.116,0.193 v 0 c -0.144,0 -0.399,-0.218 -0.617,-0.436 m -9.064,-9.365 c 0,0.002 0.009,0.063 0.033,0.171 v 0 c -0.057,-0.11 -0.035,-0.16 -0.033,-0.171" /></g></g></g></g><g
       id="g614"><g
         id="g616"><g
           id="g622"><g
             id="g624"><path
               id="path632"
               style="fill:url(#linearGradient630);stroke:none"
               d="m 191.949,219.634 c 25.181,-41.447 -10.255,-70.89 -19.245,-75.01 v 0 c 0.153,0.183 0.369,0.442 0.612,0.756 v 0 c -0.245,-0.124 -0.488,-0.243 -0.723,-0.351 v 0 c -4.081,-2.028 -6.796,-2.527 -6.905,-2.148 v 0 c -0.688,-1.457 -0.71,-1.861 -0.679,-1.972 v 0 c 0.226,-0.063 0.718,0.036 1.763,0.613 v 0 c -0.005,0.01 2.535,0.686 6.401,2.712 v 0 c 6.539,3.381 17.486,11.928 23.764,26.68 v 0 c 10.21,21.816 0.079,42.703 -5.189,49.322 v 0 c -0.809,0.574 -1.654,1.152 -2.072,1.399 v 0 c 0.767,-0.624 1.527,-1.286 2.273,-2.001" /></g></g></g></g><g
       id="g634"><g
         clip-path="url(#clipPath640)"
         id="g636"><g
           transform="translate(205.7187,199.6364)"
           id="g642"><path
             id="path644"
             style="fill:#1c1b18;fill-opacity:1;fill-rule:nonzero;stroke:none"
             d="m 0,0 c 0.044,-0.01 -0.229,-4.66 -1.57,-6.709 0.001,-0.011 4.806,18.554 -14.306,29.247 3.818,-2.534 18.78,-26.289 7.094,-51.26 -6.278,-14.753 -17.224,-23.299 -23.764,-26.68 -3.866,-2.026 -6.406,-2.702 -6.401,-2.712 -1.043,-0.577 -1.538,-0.676 -1.763,-0.613 0.007,-0.03 0.019,-0.042 0.018,-0.042 -0.004,0.004 -0.882,-0.204 -2.893,-1.971 -1.174,-1.019 -0.711,-1.585 -0.112,-1.889 2.319,1.001 6.646,2.45 11.879,5.478 v 0 c 0.068,-0.051 0.131,-0.109 0.211,-0.148 -0.009,-0.002 3.79,-1.608 3.125,-4.464 0.01,-0.088 10.685,5.107 15.242,12.374 0.009,-0.043 -3.449,-2.278 -7.205,-1.909 -0.009,-0.017 7.382,2.427 9.36,4.742 -0.222,-0.025 7.314,5.389 10.654,24.51 0.033,-0.015 -2.089,-3.912 -5.141,-5.58 -0.013,-0.008 3.748,3.656 5.956,9.46 C 0.437,-18.203 2.21,-8.67 0,0" /></g><g
           transform="translate(175.9844,154.781)"
           id="g646"><path
             id="path648"
             style="fill:#1c1b18;fill-opacity:1;fill-rule:nonzero;stroke:none"
             d="M 0,0 C 0.04,-0.082 6.392,6.849 7.166,9.041 7.154,9.049 7.848,5.25 6.867,-0.024 6.812,-0.04 8.313,2.681 8.44,10.89 c 0.013,-0.097 6.129,10.01 5.737,21.128 -0.063,0.034 3.414,-4.749 3.524,-13.161 0.017,4.652 -0.575,11.494 -3.573,16.84 0.253,0.007 -0.949,15.527 -4.219,18.155 C 9.849,53.778 16.444,51.335 20.63,42.526 20.731,42.585 17.772,52.943 9.556,55.772 9.559,55.775 6.455,64.653 -3.278,72.069 -3.022,71.983 13.032,67.884 16.093,58.931 16.367,59.124 8.995,71.798 -8.099,75.823 -8.16,75.607 5.247,75.117 15.965,64.853 41.146,23.406 5.709,-6.037 -3.281,-10.157 -2.316,-9.002 0.949,-5.168 0,0" /></g><g
           transform="translate(127.8052,134.7136)"
           id="g650"><path
             id="path652"
             style="fill:#2b2b2a;fill-opacity:1;fill-rule:nonzero;stroke:none"
             d="m 0,0 c 0,0 0.185,-0.143 0.266,-0.325 -0.01,0.117 -0.096,0.282 -0.225,0.413 0.847,-0.271 0.967,-1.589 0.276,-1.887 0.103,0.006 0.22,0.064 0.352,0.254 -0.066,-0.543 -0.423,-0.991 -0.925,-1.088 -0.651,-0.127 -1.209,0.455 -1.29,0.637 0.009,-0.117 0.072,-0.203 0.155,-0.32 -0.735,0.554 -0.178,1.537 -0.314,1.288 0.059,0.549 0.757,1.294 0.747,2.007 C -0.767,0.539 -0.308,0.322 0,0" /></g></g></g><g
       id="g654"><g
         id="g656"><g
           id="g662"><g
             id="g664"><path
               id="path674"
               style="fill:url(#linearGradient672);stroke:none"
               d="m 117.785,142.906 c 0.001,-0.009 -0.007,-0.017 -0.008,-0.025 v 0 c 0.88,-1.852 0.666,-2.013 0.661,-2.014 v 0 c 0.004,0.005 0.883,-0.202 2.893,-1.97 v 0 c 1.174,-1.02 0.711,-1.584 0.111,-1.89 v 0 c 0.218,-0.094 0.418,-0.184 0.601,-0.268 v 0 c 4.434,-2.035 5.334,-2.933 5.506,-3.27 v 0 c -0.139,0.634 -0.784,2.909 -3.246,4.697 v 0 c -2.898,2.106 -5.38,4.061 -5.381,4.06 v 0 c -10e-4,-0.002 -0.185,0.217 -0.405,0.437 v 0 c -0.218,0.218 -0.473,0.436 -0.617,0.436 v 0 c -0.072,0 -0.117,-0.055 -0.115,-0.193 m 9.797,-9.608 c 0.002,0.011 0.023,0.061 -0.033,0.171 v 0 c 0.024,-0.108 0.033,-0.169 0.033,-0.171" /></g></g></g></g><g
       id="g676"><g
         id="g678"><g
           id="g684"><g
             id="g686"><path
               id="path694"
               style="fill:url(#linearGradient692);stroke:none"
               d="m 91.717,220.236 c -5.268,-6.619 -15.399,-27.506 -5.19,-49.322 v 0 c 6.278,-14.752 17.225,-23.299 23.765,-26.68 v 0 c 3.865,-2.026 6.406,-2.702 6.401,-2.712 v 0 c 1.045,-0.577 1.537,-0.676 1.762,-0.613 v 0 c 0.031,0.111 0.009,0.515 -0.678,1.972 v 0 c -0.109,-0.379 -2.825,0.12 -6.905,2.148 v 0 c -0.236,0.108 -0.478,0.227 -0.723,0.351 v 0 c 0.243,-0.314 0.458,-0.573 0.611,-0.756 v 0 c -8.99,4.12 -44.425,33.563 -19.245,75.01 v 0 c 0.746,0.715 1.506,1.377 2.274,2.001 v 0 c -0.419,-0.247 -1.263,-0.825 -2.072,-1.399" /></g></g></g></g><g
       id="g696"><g
         clip-path="url(#clipPath702)"
         id="g698"><g
           transform="translate(77.7456,199.6364)"
           id="g704"><path
             id="path706"
             style="fill:#1c1b18;fill-opacity:1;fill-rule:nonzero;stroke:none"
             d="M 0,0 C -0.043,-0.01 0.229,-4.66 1.57,-6.709 1.569,-6.72 -3.236,11.845 15.876,22.538 12.058,20.004 -2.904,-3.751 8.782,-28.722 c 6.278,-14.753 17.224,-23.299 23.764,-26.68 3.866,-2.026 6.406,-2.702 6.401,-2.712 1.043,-0.577 1.538,-0.677 1.763,-0.613 -0.007,-0.03 -0.019,-0.042 -0.017,-0.042 0.004,0.004 0.882,-0.204 2.892,-1.971 1.175,-1.019 0.711,-1.585 0.112,-1.889 -2.319,1.001 -6.646,2.45 -11.879,5.478 -0.068,-0.051 -0.131,-0.109 -0.211,-0.148 0.01,-0.002 -3.79,-1.608 -3.124,-4.464 -0.01,-0.088 -10.686,5.107 -15.243,12.374 -0.008,-0.043 3.449,-2.278 7.206,-1.909 0.008,-0.017 -7.383,2.427 -9.361,4.742 0.222,-0.025 -7.314,5.389 -10.654,24.51 -0.033,-0.015 2.089,-3.912 5.141,-5.58 0.013,-0.008 -3.747,3.656 -5.956,9.46 C -0.437,-18.203 -2.21,-8.67 0,0" /></g><g
           transform="translate(107.4805,154.781)"
           id="g708"><path
             id="path710"
             style="fill:#1c1b18;fill-opacity:1;fill-rule:nonzero;stroke:none"
             d="m 0,0 c -0.041,-0.082 -6.392,6.849 -7.166,9.041 0.012,0.008 -0.683,-3.791 0.299,-9.065 0.055,-0.016 -1.446,2.705 -1.573,10.914 -0.014,-0.097 -6.129,10.01 -5.738,21.128 0.064,0.034 -3.413,-4.749 -3.523,-13.161 -0.017,4.652 0.575,11.494 3.573,16.84 -0.253,0.007 0.948,15.527 4.219,18.155 0.06,-0.074 -6.535,-2.517 -10.721,-11.326 -0.101,0.059 2.857,10.417 11.074,13.246 -0.003,0.003 3.101,8.881 12.834,16.297 -0.256,-0.086 -16.31,-4.185 -19.371,-13.138 -0.274,0.193 7.098,12.867 24.192,16.892 C 8.16,75.607 -5.247,75.117 -15.965,64.853 -41.146,23.406 -5.71,-6.037 3.28,-10.157 2.316,-9.002 -0.95,-5.168 0,0" /></g></g></g></g></svg>